<svg width="61" height="58" viewBox="0 0 61 58" fill="none" xmlns="http://www.w3.org/2000/svg">
<path d="M51.4688 7.5271H9.53126C8.12754 7.5271 6.98959 8.60855 6.98959 9.94258V16.0443C6.98959 17.3784 8.12754 18.4598 9.53126 18.4598H51.4688C52.8725 18.4598 54.0104 17.3784 54.0104 16.0443V9.94258C54.0104 8.60855 52.8725 7.5271 51.4688 7.5271Z" stroke="#FE3140" stroke-width="2" stroke-linecap="round" stroke-linejoin="round"/>
<path d="M53.8043 33.577V31.4015C53.8043 30.0674 52.6664 28.986 51.2626 28.986H9.53126C8.1275 28.986 6.98959 27.9046 6.98959 26.5705V24.395" stroke="#FE3140" stroke-width="2" stroke-linecap="round" stroke-linejoin="round"/>
<path d="M51.4688 39.5122H9.53126C8.12754 39.5122 6.98959 40.5937 6.98959 41.9277V48.0294C6.98959 49.3635 8.12754 50.4449 9.53126 50.4449H51.4688C52.8725 50.4449 54.0104 49.3635 54.0104 48.0294V41.9277C54.0104 40.5937 52.8725 39.5122 51.4688 39.5122Z" stroke="#FE3140" stroke-width="2" stroke-linecap="round" stroke-linejoin="round"/>
</svg>
