<svg viewBox="0 0 64 64" fill="none" xmlns="http://www.w3.org/2000/svg">
<path d="M55.2812 7.625H5.71875C2.56009 7.625 0 10.1851 0 13.3438V43.8438C0 47.0024 2.56009 49.5625 5.71875 49.5625H22.875V55.2812H20.0156C19.4895 55.2812 19.0625 55.7082 19.0625 56.2344C19.0625 56.7605 19.4895 57.1875 20.0156 57.1875H40.9844C41.5105 57.1875 41.9375 56.7605 41.9375 56.2344C41.9375 55.7082 41.5105 55.2812 40.9844 55.2812H38.125V49.5625H55.2812C58.4399 49.5625 61 47.0024 61 43.8438V13.3438C61 10.1851 58.4399 7.625 55.2812 7.625ZM36.2188 55.2812H24.7812V49.5625H36.2188V55.2812ZM59.0938 43.8438C59.0938 45.9502 57.3877 47.6562 55.2812 47.6562H5.71875C3.61234 47.6562 1.90625 45.9502 1.90625 43.8438V13.3438C1.90625 11.2373 3.61234 9.53125 5.71875 9.53125H55.2812C57.3877 9.53125 59.0938 11.2373 59.0938 13.3438V43.8438ZM49.1908 17.2134C47.7001 16.9199 46.3791 17.7853 45.9254 19.0625H34.3125V17.1562H26.6875V19.0625H15.0746C14.6209 17.7853 13.298 16.9199 11.8092 17.2134C10.7169 17.4288 9.82672 18.3038 9.59797 19.3942C9.20719 21.2452 10.6083 22.875 12.3906 22.875C13.6335 22.875 14.6819 22.0763 15.0746 20.9688H26.6875V21.3958C18.3229 23.1057 11.9236 30.2751 11.4642 39.0209C11.4356 39.568 11.8702 40.0312 12.4192 40.0312C12.9206 40.0312 13.3418 39.6424 13.3666 39.141C13.765 31.3921 19.3408 25.0157 26.6875 23.3401V24.7812H34.3125V23.3382C41.6592 25.0157 47.235 31.3921 47.6334 39.1391C47.6601 39.6424 48.0794 40.0312 48.5808 40.0312C49.1298 40.0312 49.5644 39.568 49.5358 39.0209C49.0764 30.2751 42.6771 23.1057 34.3125 21.3958V20.9688H45.9254C46.32 22.0763 47.3665 22.875 48.6094 22.875C50.3917 22.875 51.7928 21.2452 51.4039 19.3942C51.1733 18.3038 50.2831 17.4288 49.1908 17.2134ZM12.3906 20.9688C11.8645 20.9688 11.4375 20.5417 11.4375 20.0156C11.4375 19.4895 11.8645 19.0625 12.3906 19.0625C12.9167 19.0625 13.3438 19.4895 13.3438 20.0156C13.3438 20.5417 12.9167 20.9688 12.3906 20.9688ZM32.4062 22.875H28.5938V19.0625H32.4062V22.875ZM48.6094 20.9688C48.0832 20.9688 47.6562 20.5417 47.6562 20.0156C47.6562 19.4895 48.0832 19.0625 48.6094 19.0625C49.1355 19.0625 49.5625 19.4895 49.5625 20.0156C49.5625 20.5417 49.1355 20.9688 48.6094 20.9688Z" fill="#FE3140"/>
</svg>
