<svg width="42" height="62" viewBox="0 0 42 62" fill="none" xmlns="http://www.w3.org/2000/svg">
<path fill-rule="evenodd" clip-rule="evenodd" d="M21.2966 31.0459C21.2966 25.3923 25.8799 20.8091 31.5334 20.8091C37.1869 20.8091 41.7702 25.3923 41.7702 31.0459C41.7702 36.6994 37.1869 41.2826 31.5334 41.2826C25.8799 41.2826 21.2966 36.6994 21.2966 31.0459Z" fill="#CC2A36"/>
<path fill-rule="evenodd" clip-rule="evenodd" d="M0.82309 51.5195C0.82309 45.866 5.40625 41.2827 11.0599 41.2827H21.2966V51.5195C21.2966 57.173 16.7134 61.7563 11.0599 61.7563C5.40625 61.7563 0.82309 57.173 0.82309 51.5195Z" fill="#FE3140"/>
<path fill-rule="evenodd" clip-rule="evenodd" d="M21.2966 0.335693V20.8092H31.5334C37.1869 20.8092 41.7702 16.226 41.7702 10.5725C41.7702 4.91885 37.1869 0.335693 31.5334 0.335693H21.2966Z" fill="#E22E3B"/>
<path fill-rule="evenodd" clip-rule="evenodd" d="M0.823151 10.5725C0.823151 16.226 5.40631 20.8092 11.0599 20.8092H21.2967V0.335693H11.0599C5.40631 0.335693 0.823151 4.91885 0.823151 10.5725Z" fill="#E22E3B"/>
<path fill-rule="evenodd" clip-rule="evenodd" d="M0.82309 31.0459C0.82309 36.6994 5.40625 41.2826 11.0599 41.2826H21.2966V20.8091H11.0599C5.40625 20.8091 0.82309 25.3923 0.82309 31.0459Z" fill="#CC2B36"/>
</svg>
