<svg width="27" height="25" viewBox="0 0 27 25" fill="none" xmlns="http://www.w3.org/2000/svg">
<path d="M22.0617 1.69434H4.5324C2.76168 1.69434 1.87631 1.69434 1.32622 2.21045C0.776123 2.72656 0.776123 3.55722 0.776123 5.21855V6.08227C0.776123 7.38174 0.776123 8.03148 1.10117 8.5701C1.42621 9.10873 2.02004 9.44301 3.20771 10.1116L6.85508 12.1648C7.65194 12.6133 8.05037 12.8377 8.33564 13.0854C8.92974 13.6011 9.29546 14.2071 9.46119 14.9505C9.54077 15.3073 9.54077 15.725 9.54077 16.5603V19.9028C9.54077 21.0417 9.54077 21.611 9.8562 22.055C10.1716 22.4989 10.7319 22.7178 11.8524 23.156C14.2046 24.0755 15.3807 24.5353 16.2171 24.0121C17.0533 23.489 17.0533 22.2936 17.0533 19.9028V16.5603C17.0533 15.725 17.0533 15.3073 17.133 14.9505C17.2986 14.2071 17.6643 13.6011 18.2585 13.0854C18.5437 12.8377 18.9421 12.6133 19.7391 12.1648L23.3864 10.1116C24.574 9.44301 25.1679 9.10873 25.4929 8.5701C25.818 8.03148 25.818 7.38174 25.818 6.08227V5.21855C25.818 3.55722 25.818 2.72656 25.2679 2.21045C24.7178 1.69434 23.8324 1.69434 22.0617 1.69434Z" stroke-width="1.5"/>
</svg>
