<svg width="57" height="57" viewBox="0 0 57 57" fill="none" xmlns="http://www.w3.org/2000/svg">
<path fill-rule="evenodd" clip-rule="evenodd" d="M28.5158 0.983887C12.798 0.983887 0.0523682 13.7385 0.0523682 29.4729C0.0523682 42.06 8.20801 52.7389 19.5174 56.506C20.9399 56.7697 21.4622 55.888 21.4622 55.1355C21.4622 54.4562 21.4358 52.212 21.4235 49.8314C13.505 51.5548 11.8341 46.4701 11.8341 46.4701C10.5393 43.1772 8.6737 42.3016 8.6737 42.3016C6.09121 40.5334 8.86836 40.5697 8.86836 40.5697C11.7266 40.7707 13.2316 43.5055 13.2316 43.5055C15.7702 47.8609 19.8902 46.6017 21.5145 45.8738C21.77 44.0325 22.5076 42.7757 23.3216 42.0643C16.9995 41.3439 10.3536 38.9011 10.3536 27.9849C10.3536 24.8746 11.4655 22.3332 13.2863 20.3381C12.9907 19.6205 12.0165 16.7229 13.562 12.7988C13.562 12.7988 15.9522 12.0331 21.3915 15.719C23.6619 15.0878 26.0969 14.7712 28.5158 14.7604C30.9348 14.7712 33.3716 15.0878 35.6463 15.719C41.079 12.0331 43.4659 12.7988 43.4659 12.7988C45.0152 16.7229 44.0404 19.6205 43.7449 20.3381C45.5699 22.3332 46.6743 24.8746 46.6743 27.9849C46.6743 38.927 40.0156 41.3363 33.6775 42.0416C34.6984 42.9257 35.6081 44.6595 35.6081 47.3174C35.6081 51.1293 35.5751 54.1972 35.5751 55.1355C35.5751 55.8936 36.0875 56.782 37.5303 56.5022C48.8335 52.7309 56.9788 42.0558 56.9788 29.4729C56.9788 13.7385 44.2351 0.983887 28.5158 0.983887ZM10.7129 41.567C10.6502 41.7086 10.4277 41.751 10.225 41.6538C10.0186 41.5609 9.90262 41.368 9.96955 41.2259C10.0308 41.0802 10.2538 41.0396 10.4597 41.1373C10.6667 41.2302 10.7845 41.425 10.7129 41.567ZM12.1129 42.8174C11.9772 42.9434 11.7118 42.8849 11.5318 42.6858C11.3456 42.4872 11.3107 42.2216 11.4483 42.0937C11.5883 41.9678 11.8457 42.0268 12.0323 42.2254C12.2185 42.4263 12.2548 42.6901 12.1129 42.8174ZM13.0735 44.4173C12.8991 44.5385 12.6139 44.4248 12.4376 44.1715C12.2632 43.9181 12.2632 43.6143 12.4414 43.4926C12.6181 43.3709 12.8991 43.4803 13.0777 43.7318C13.2516 43.9894 13.2516 44.2932 13.0735 44.4173ZM14.6979 46.2701C14.5419 46.4423 14.2096 46.3961 13.9664 46.1611C13.7175 45.9314 13.6482 45.6054 13.8047 45.4332C13.9626 45.2605 14.2968 45.3091 14.5419 45.5422C14.7889 45.7715 14.8643 46.0998 14.6979 46.2701ZM16.7973 46.8956C16.7285 47.1188 16.4084 47.2202 16.086 47.1254C15.7641 47.0277 15.5534 46.7664 15.6185 46.5409C15.6854 46.3163 16.0069 46.2106 16.3316 46.312C16.6531 46.4092 16.8642 46.6687 16.7973 46.8956ZM19.1865 47.1609C19.1945 47.3959 18.9212 47.5907 18.5827 47.595C18.2424 47.6025 17.9672 47.4124 17.9634 47.1812C17.9634 46.9439 18.2306 46.751 18.571 46.7453C18.9094 46.7387 19.1865 46.9274 19.1865 47.1609ZM21.5337 47.0709C21.5742 47.3002 21.339 47.5356 21.0029 47.5983C20.6725 47.6587 20.3666 47.5172 20.3247 47.2898C20.2837 47.0548 20.5231 46.8194 20.8531 46.7586C21.1896 46.7001 21.4908 46.8378 21.5337 47.0709Z"/>
</svg>
