<svg width="41" height="30" viewBox="0 0 41 30" fill="none" xmlns="http://www.w3.org/2000/svg">
<path fill-rule="evenodd" clip-rule="evenodd" d="M0.485294 23.9L5.07126 21.1009C5.95597 22.683 6.76079 24.0216 8.69127 24.0216C10.5417 24.0216 11.7084 23.2915 11.7084 20.4518V1.14014H17.3399V20.5321C17.3399 26.4148 13.9209 29.0925 8.93268 29.0925C4.42767 29.0925 1.81261 26.7393 0.485199 23.8995" fill="#FE3140"/>
<path fill-rule="evenodd" clip-rule="evenodd" d="M20.0367 23.2179L24.7709 20.5065C26.0172 22.5197 27.6369 23.9985 30.5025 23.9985C32.9116 23.9985 34.4479 22.8071 34.4479 21.1638C34.4479 19.1918 32.8698 18.4934 30.2117 17.3435L28.7585 16.7268C24.5635 14.9606 21.7808 12.7422 21.7808 8.05879C21.7808 3.74518 25.1033 0.458496 30.2949 0.458496C33.9913 0.458496 36.6493 1.73216 38.5596 5.05984L34.0326 7.93541C33.0357 6.16903 31.9562 5.47076 30.295 5.47076C28.5922 5.47076 27.5123 6.53886 27.5123 7.93541C27.5123 9.66089 28.5922 10.3595 31.0839 11.4277L32.5373 12.0438C37.4797 14.1392 40.2624 16.2752 40.2624 21.0816C40.2624 26.2582 36.1508 29.0926 30.6272 29.0926C25.2281 29.0926 21.7393 26.5457 20.0368 23.2179" fill="#FE3140"/>
</svg>
