<svg width="62" height="62" viewBox="0 0 62 62" fill="none" xmlns="http://www.w3.org/2000/svg">
<path d="M31.9535 4.37622C31.6109 4.37622 31.2531 4.39525 30.8876 4.4219C21.5043 5.16039 23.9938 15.0957 23.8454 18.4075C23.6817 20.8323 23.183 22.7471 21.5157 25.1148C19.5515 27.4483 16.7955 31.2206 15.486 35.1529C14.8693 36.9991 14.5724 38.891 14.8503 40.6801C14.7491 40.7624 14.6661 40.8648 14.6066 40.9809C14.028 41.5747 13.6055 42.3132 13.1335 42.8461C12.6919 43.2839 12.0562 43.4362 11.3634 43.7293C10.6668 44.0338 9.90164 44.3269 9.44485 45.2405C9.24448 45.657 9.14411 46.1145 9.15173 46.5766C9.15173 47.0182 9.21264 47.4674 9.27355 47.7681C9.40297 48.6551 9.5324 49.3859 9.3611 49.9227C8.80914 51.4301 8.74062 52.4655 9.12509 53.2154C9.51336 53.9577 10.3166 54.2622 11.2149 54.5515C13.0117 54.9969 15.4555 54.8523 17.3741 55.8839C19.4297 56.9193 21.5157 57.3685 23.183 56.9269C24.3516 56.6718 25.3376 55.8991 25.8667 54.8256C27.1686 54.8218 28.596 54.228 30.8838 54.0871C32.4369 53.9577 34.3783 54.6772 36.6052 54.5287C36.6623 54.8256 36.7461 54.9703 36.8603 55.2672L36.8641 55.2748C37.7358 57.003 39.3384 57.7872 41.0514 57.654C42.7644 57.5207 44.5839 56.4625 46.0609 54.7533C47.4618 53.0555 49.799 52.3475 51.3407 51.4149C52.1135 50.9733 52.7378 50.3757 52.7834 49.523C52.8329 48.6322 52.3381 47.7224 51.1961 46.4662V46.2531L51.1885 46.2455C50.8116 45.8001 50.6365 45.0578 50.4385 44.1899C50.2482 43.2991 50.035 42.4426 49.346 41.8678C49.2128 41.746 49.0682 41.7156 48.9235 41.5633C48.8001 41.4776 48.6549 41.4287 48.5048 41.4224C49.4564 38.5865 49.0872 35.762 48.1165 33.2229C46.9364 30.0901 44.8656 27.3607 43.2859 25.4878C41.5196 23.2534 39.7876 21.1407 39.8218 18.0078C39.8827 13.2305 40.3471 4.38764 31.9535 4.37622ZM33.1298 11.9362H33.1564C33.6322 11.9362 34.0357 12.0732 34.4507 12.3778C34.8613 12.6917 35.1946 13.0953 35.4252 13.5578C35.6612 14.1364 35.7792 14.578 35.7944 15.168C35.7944 15.1224 35.8096 15.0805 35.8096 15.0348V15.267C35.804 15.2523 35.8001 15.237 35.7982 15.2213L35.7906 15.168C35.7868 15.7086 35.6764 16.2415 35.4594 16.7364C35.3547 17.0145 35.1926 17.2674 34.9836 17.4787C34.921 17.4439 34.8562 17.4133 34.7895 17.3873C34.5611 17.2845 34.3517 17.2427 34.1576 17.0904C33.9997 17.0281 33.8366 16.9797 33.6703 16.9457C33.7845 16.8125 33.9939 16.6488 34.0776 16.5042C34.1938 16.2208 34.2595 15.9194 34.2718 15.6134V15.5677C34.2773 15.2667 34.2323 14.9669 34.1385 14.6808C34.0357 14.3801 33.9101 14.2354 33.7312 13.9385C33.5409 13.7938 33.3582 13.6454 33.1374 13.6454H33.0993C32.8937 13.6454 32.711 13.7139 32.5207 13.9385C32.3092 14.1442 32.1522 14.3993 32.0639 14.6808C31.9463 14.9638 31.8793 15.2653 31.866 15.5716V15.6096C31.866 15.8114 31.8812 16.0093 31.9078 16.2035C31.4815 16.055 30.9371 15.9065 30.5603 15.7581C30.5385 15.6105 30.5257 15.4618 30.5222 15.3127V15.2632C30.5042 14.6772 30.6174 14.0945 30.8534 13.5578C31.0357 13.0714 31.371 12.6573 31.8089 12.3778C32.1889 12.0893 32.6527 11.9329 33.1298 11.9324V11.9362ZM26.5519 12.0694H26.628C26.9478 12.0694 27.2295 12.176 27.5188 12.3664C27.8428 12.6539 28.1023 13.0068 28.2801 13.4018C28.4819 13.8433 28.5922 14.2887 28.6227 14.8825V14.8902C28.638 15.0867 28.6355 15.2841 28.6151 15.4802V15.6591L28.4324 15.7124C28.0936 15.8342 27.8233 16.0131 27.5568 16.1578C27.5839 15.9609 27.5864 15.7614 27.5645 15.5639V15.5297C27.5378 15.2328 27.4769 15.0843 27.3855 14.7912C27.3162 14.5645 27.1889 14.3598 27.0163 14.1974C26.9613 14.1478 26.8969 14.1097 26.827 14.0855C26.757 14.0613 26.6829 14.0515 26.609 14.0565H26.5633C26.4034 14.0679 26.274 14.1441 26.1484 14.3496C26.007 14.521 25.9149 14.7276 25.8819 14.9473C25.8221 15.1873 25.8054 15.436 25.8324 15.6819V15.7124C25.8591 16.0169 25.9124 16.1578 26.0113 16.4547C26.0798 16.682 26.2057 16.8878 26.3768 17.0523C26.3996 17.0714 26.4225 17.0904 26.4529 17.1056C26.3006 17.2312 26.1941 17.2579 26.0646 17.4064C25.9811 17.4806 25.8803 17.533 25.7715 17.5586C25.5412 17.28 25.3373 16.9805 25.1625 16.6641C24.9531 16.1974 24.8368 15.6944 24.8199 15.1833C24.7818 14.6808 24.8389 14.1783 24.995 13.6987C25.1172 13.2625 25.3314 12.8576 25.6231 12.511C25.9086 12.2179 26.2017 12.0694 26.5519 12.0694ZM29.5934 15.857C30.3319 15.857 31.2226 16.0017 32.2961 16.744C32.9432 17.1856 33.4533 17.3416 34.6296 17.7832H34.6372C35.2044 18.0839 35.5356 18.3732 35.6992 18.6663V18.377C35.7787 18.5385 35.8228 18.715 35.8287 18.8949C35.8346 19.0747 35.8021 19.2537 35.7335 19.4201C35.4594 20.1053 34.5877 20.8476 33.3734 21.2891C32.7795 21.5937 32.2618 22.0352 31.6528 22.3283C31.0399 22.6253 30.3471 22.9755 29.4069 22.9184C29.0678 22.9364 28.7286 22.8859 28.4095 22.7699C28.1634 22.6368 27.9245 22.4906 27.6939 22.3321C27.2637 22.0314 26.8907 21.5937 26.3349 21.3005V21.2891H26.3235C25.4365 20.741 24.9569 20.1509 24.8008 19.7132C24.6486 19.1155 24.7894 18.6663 25.231 18.3808C25.7258 18.0763 26.0722 17.7756 26.3045 17.6309C26.5329 17.4673 26.6204 17.4064 26.6927 17.3416L26.6965 17.334C27.0734 16.8886 27.6672 16.291 28.5618 16.0017C28.8663 15.9218 29.2127 15.857 29.5972 15.857H29.5934ZM35.8096 20.6153C36.609 23.7596 38.4667 28.3276 39.662 30.5469C40.2977 31.7307 41.5653 34.2279 42.1096 37.2618C42.456 37.2504 42.8443 37.2999 43.2516 37.4026C44.6829 33.6912 42.0373 29.7056 40.8306 28.5941C40.3433 28.1525 40.3167 27.8518 40.5603 27.8518C41.8698 29.0394 43.5904 31.3425 44.2147 33.9728C44.5002 35.1605 44.5687 36.4243 44.2604 37.6805C44.4088 37.7452 44.5611 37.8137 44.7172 37.8328C47.005 39.0166 47.8538 39.915 47.4465 41.2435V41.1484C47.3133 41.1408 47.1801 41.1484 47.0468 41.1484H47.0088C47.3476 40.113 46.6053 39.3174 44.6486 38.4304C42.6159 37.5435 40.9943 37.6843 40.7164 39.462C40.6974 39.5572 40.6859 39.6105 40.6783 39.7627C40.5261 39.8122 40.3662 39.8769 40.2101 39.9036C39.2584 40.5012 38.7407 41.3882 38.4514 42.5416C38.1621 43.7217 38.0708 45.1073 37.9946 46.6908V46.6984C37.9528 47.4407 37.6178 48.5599 37.2866 49.6943C33.9558 52.0772 29.3383 53.1088 25.4099 50.4366C25.1639 50.0073 24.8646 49.6108 24.5191 49.2565C24.3544 48.98 24.1491 48.7298 23.9101 48.5142C24.2582 48.5125 24.6042 48.4612 24.9379 48.3619C25.2577 48.2152 25.5086 47.9506 25.6383 47.6235C25.8781 47.0296 25.6383 46.0742 24.8732 45.0426C24.108 44.0033 22.8062 42.8347 20.9028 41.6623C19.502 40.7753 18.714 39.7323 18.3486 38.5637C17.9831 37.376 18.0326 36.1541 18.3143 34.9093C18.8587 32.5339 20.2557 30.2271 21.1426 28.7768C21.3825 28.6321 21.2264 29.0737 20.2367 30.939C19.3611 32.6063 17.7053 36.4814 19.9702 39.4963C20.054 37.296 20.5412 35.1339 21.4053 33.1087C22.6577 30.2728 25.2729 25.328 25.4784 21.4109C25.5888 21.4909 25.9619 21.7155 26.1255 21.8601C26.6052 22.157 26.963 22.5986 27.4312 22.8917C27.6879 23.1414 27.9928 23.3364 28.3272 23.4646C28.6616 23.5929 29.0185 23.6518 29.3764 23.6378L29.6238 23.6492C30.5374 23.6492 31.2417 23.3523 31.8355 23.0554C32.4826 22.7585 32.9927 22.3131 33.48 22.1685H33.4914C34.5268 21.8639 35.3452 21.2777 35.8096 20.6153ZM40.6631 40.505C40.743 41.8374 41.4244 43.2687 42.6197 43.5618C43.9254 43.8587 45.8059 42.8233 46.5976 41.864L47.0659 41.8412C47.7663 41.826 48.3487 41.864 48.9463 42.435L48.954 42.4426C49.4146 42.8842 49.6315 43.6227 49.8219 44.3878C50.0122 45.2748 50.1645 46.1198 50.7317 46.7556C51.8089 47.9242 52.163 48.7655 52.1401 49.287L52.1515 49.2717V49.3098L52.1439 49.2832C52.1097 49.8656 51.7328 50.1625 51.04 50.6041C49.6392 51.4948 47.1572 52.1876 45.5813 54.0909C44.2109 55.7278 42.536 56.6224 41.059 56.7366C39.5858 56.8508 38.3144 56.2912 37.5645 54.7419L37.5531 54.7343C37.0887 53.8473 37.2866 52.4617 37.6787 50.9847C38.0708 49.5001 38.6304 48.0003 38.7065 46.7708C38.7902 45.1834 38.874 43.8054 39.1404 42.7434C39.4069 41.7118 39.8256 40.9733 40.5641 40.5583L40.6631 40.505ZM16.6508 40.6116H16.6737C16.7899 40.613 16.9058 40.6245 17.0201 40.6459C17.8575 40.7677 18.5884 41.3844 19.2926 42.3132L21.3101 46.0056L21.3216 46.0171C21.8583 47.1971 22.9965 48.3772 23.9596 49.6524C24.9226 50.9771 25.6726 52.1648 25.5774 53.1355V53.1507C25.4518 54.8028 24.5115 55.7012 23.0802 56.0247C21.6489 56.3254 19.7037 56.0247 17.7624 54.9969C15.6116 53.8016 13.0612 53.9539 11.4167 53.657C10.5983 53.5085 10.0653 53.2116 9.81409 52.77C9.57046 52.3247 9.56285 51.4301 10.0844 50.0369V50.0293L10.092 50.0216C10.3508 49.2794 10.1567 48.3505 10.0311 47.5397C9.90926 46.649 9.84454 45.9638 10.1262 45.4499C10.4803 44.7114 11.0018 44.5629 11.6565 44.2698C12.3112 43.9653 13.0802 43.8206 13.6892 43.223C14.2602 42.6253 14.6828 41.8869 15.1776 41.3577C15.5964 40.9124 16.0227 40.6116 16.6508 40.6116ZM32.5473 20.4631C31.5805 20.9085 30.4499 21.6508 29.2432 21.6508C28.0403 21.6508 27.0886 21.0607 26.3996 20.6153C26.057 20.3184 25.7791 20.0215 25.5736 19.8731C25.2081 19.5761 25.2538 19.1346 25.4061 19.1346C25.6497 19.1726 25.6954 19.4315 25.8515 19.5799C26.0646 19.7246 26.3273 20.0215 26.6509 20.3184C27.298 20.76 28.1583 21.3538 29.2394 21.3538C30.3167 21.3538 31.5805 20.76 32.3456 20.3184C32.7795 20.0215 33.3353 19.5799 33.7845 19.283C34.1271 18.9785 34.1157 18.6892 34.405 18.6892C34.6867 18.7273 34.4811 18.9861 34.0776 19.4277C33.5828 19.8007 33.0727 20.1471 32.5435 20.4669L32.5473 20.4631ZM30.1454 16.9496V16.9001C30.1301 16.8544 30.172 16.8087 30.2101 16.7859C30.3738 16.6945 30.6098 16.7288 30.7849 16.7973C30.9257 16.7973 31.1427 16.9496 31.1199 17.098C31.1046 17.2084 30.9295 17.2427 30.8191 17.2427C30.6973 17.2427 30.6136 17.1475 30.507 17.0904C30.3928 17.0523 30.1834 17.0752 30.1454 16.9496ZM28.9196 16.9496C28.8777 17.079 28.6684 17.0561 28.5504 17.0942C28.4476 17.1513 28.36 17.2465 28.242 17.2465C28.1278 17.2465 27.9527 17.2008 27.9375 17.0942C27.9185 16.9496 28.1354 16.8011 28.2725 16.8011C28.4514 16.7326 28.6798 16.6945 28.8473 16.7897C28.8892 16.8087 28.9272 16.8544 28.9158 16.9001V16.9457L28.9196 16.9496Z" fill="#FE3140"/>
</svg>
