<svg width="55" height="54" viewBox="0 0 55 54" fill="none" xmlns="http://www.w3.org/2000/svg">
<path d="M43.133 42.9535C45.0364 42.1423 47.3057 41.847 50.2339 41.9206C50.1515 41.3685 49.1052 40.7128 48.3386 40.2325C48.0813 40.0712 47.8555 39.9297 47.7083 39.8185C46.537 38.9703 45.2924 38.0848 44.0481 37.3106C43.6472 37.0638 43.07 36.8578 42.5146 36.6597C42.1573 36.5322 41.809 36.4079 41.5224 36.278C41.2296 36.1577 40.8308 36.0375 40.4003 35.9077C39.3775 35.5993 38.1755 35.2369 37.789 34.6921C36.7938 33.3883 36.0992 31.8117 35.4056 30.2374C35.334 30.0747 35.2623 29.9121 35.1904 29.7498C34.8273 28.9136 34.4234 28.0608 34.0172 27.2033C33.5636 26.2455 33.1071 25.2817 32.7015 24.3282C32.5247 23.9398 32.3903 23.5726 32.2581 23.2111C32.0889 22.7489 31.9232 22.2961 31.6767 21.8202C29.0045 16.62 25.0518 12.2678 20.2568 9.20663C18.6828 8.21077 16.9261 7.28849 14.9861 6.66169C14.3936 6.48267 13.7373 6.45386 13.0745 6.42476C12.5088 6.39992 11.9385 6.37488 11.3991 6.25608H10.6303C10.1866 6.13186 9.79257 5.77327 9.42608 5.4397C9.24853 5.2781 9.07743 5.12237 8.91024 5.00201C7.77545 4.22759 6.64088 3.71091 5.28656 3.15792C4.81079 2.93672 3.45648 2.42028 2.9807 2.82612C2.6877 2.89993 2.54143 3.01053 2.46818 3.30554C2.17541 3.74817 2.4319 4.41199 2.61468 4.8176C2.97748 5.59751 3.43623 6.16809 3.90632 6.75277C4.14764 7.05291 4.39194 7.35677 4.62779 7.69457C4.74044 7.85478 4.85788 8.01862 4.97729 8.1852C5.51753 8.93886 6.09814 9.74883 6.45789 10.5343C6.96553 11.6362 7.32737 12.8011 7.68789 13.9617C8.00315 14.9767 8.3174 15.9883 8.72725 16.9518C9.05652 17.7265 9.56904 18.6115 10.0448 19.3123C10.194 19.5174 10.3886 19.7022 10.5855 19.8893C10.9198 20.2069 11.261 20.531 11.3991 20.972C11.7551 21.5697 11.1016 23.2814 10.7045 24.3214C10.6116 24.5649 10.5327 24.7715 10.4841 24.9184C9.5323 27.9425 9.71531 32.1472 10.8134 34.7657C10.8526 34.8579 10.8916 34.9517 10.9308 35.0461C11.3307 36.0086 11.76 37.0417 12.8265 37.3106C12.8596 37.2772 12.8628 37.2665 12.87 37.2613C12.8786 37.2551 12.8929 37.257 12.973 37.2368C13.0265 36.8128 13.0721 36.3921 13.117 35.9773C13.2871 34.4074 13.448 32.9222 13.9978 31.6677C14.2598 31.02 14.6919 30.4971 15.1131 29.9874C15.3395 29.7135 15.5627 29.4434 15.7546 29.1598C15.9869 29.3002 16.0718 29.6188 16.159 29.946C16.2092 30.1344 16.2601 30.3257 16.3404 30.4875C16.375 30.5705 16.4097 30.6541 16.4447 30.7382C16.891 31.8123 17.3712 32.9678 17.9142 34.028C19.122 36.3886 20.4766 38.675 22.0137 40.7406C22.526 41.4782 23.2582 42.2896 23.917 42.9535C24.0172 43.0418 24.1217 43.1172 24.2246 43.1915C24.4223 43.3342 24.6143 43.4727 24.7588 43.6911H24.8321V43.8019C24.1372 43.5451 23.6036 42.9928 23.0827 42.4537C22.7805 42.141 22.4826 41.8327 22.16 41.589C20.5129 40.3349 18.5365 38.4538 17.4017 36.6468C17.0443 35.871 16.6663 35.1161 16.2831 34.3507C16.1561 34.0972 16.0286 33.8425 15.9011 33.5856C15.9011 33.5856 15.9013 33.5486 15.9011 33.5118C15.7613 33.6998 15.7403 33.8877 15.715 34.1138C15.7006 34.2426 15.6848 34.3838 15.6449 34.5445C15.5092 35.0703 15.442 35.6171 15.377 36.1456C15.2142 37.4705 15.0655 38.6802 13.888 39.1547C12.0214 39.9293 10.6304 37.9004 10.0448 36.9786C8.17822 33.9174 7.6657 28.754 8.98328 24.5864C9.08521 24.2656 9.15613 23.9225 9.22685 23.5804C9.3594 22.9391 9.49124 22.3013 9.8253 21.8202C9.75187 21.377 9.49908 21.1474 9.25203 20.923C9.12908 20.8113 9.00755 20.701 8.91026 20.5662C8.39774 19.8656 7.9587 19.0541 7.55594 18.2797C6.97072 17.1285 6.51297 15.8062 6.06935 14.5247C5.93021 14.1227 5.79246 13.7248 5.6526 13.3374C5.52766 13.0138 5.44628 12.69 5.36598 12.3706C5.28158 12.0348 5.19838 11.7038 5.06706 11.3828C4.72106 10.6273 4.14811 9.87202 3.61619 9.17081C3.4728 8.98179 3.3324 8.79671 3.20022 8.61661C3.05764 8.41042 2.86884 8.17143 2.65838 7.90503C1.62636 6.59867 0.0734655 4.63297 0.89436 2.64172C2.43168 -1.15706 7.81245 1.71944 9.89833 3.04733C10.1069 3.18246 10.3276 3.37864 10.5556 3.58121C10.8876 3.87636 11.2349 4.18506 11.5822 4.33819C12.0398 4.3567 12.4975 4.38436 12.9551 4.41202C13.4126 4.43966 13.87 4.4673 14.3273 4.48581C14.4772 4.52114 14.6262 4.55591 14.7743 4.59046C16.3262 4.95261 17.776 5.2909 19.0123 5.99787C25.3079 9.72307 29.4073 13.5219 33.1773 19.7917C33.6891 20.6355 34.0383 21.5241 34.3939 22.429C34.5979 22.9479 34.8039 23.4721 35.0439 23.9964C35.9589 26.1355 36.9842 28.3849 38.0453 30.4136C38.1787 30.6826 38.3035 30.9602 38.4285 31.2383C38.7494 31.9522 39.0719 32.6697 39.5461 33.2536C39.7165 33.4991 40.0979 33.6301 40.4634 33.7556C40.647 33.8187 40.8266 33.8803 40.9734 33.9544C41.4468 34.2001 41.9596 34.4232 42.4765 34.6481C43.2784 34.9969 44.0901 35.35 44.7801 35.7985C46.903 37.1262 48.9528 38.7118 50.8194 40.335C51.1968 40.6751 51.5095 41.0913 51.8218 41.5068C52.0852 41.8572 52.3483 42.2073 52.6495 42.5111V42.8429C52.064 43.0273 51.4782 43.2117 50.8927 43.3593C50.2555 43.5243 49.6547 43.589 49.0584 43.6532C48.4559 43.7181 47.8581 43.7824 47.2325 43.9493C47.1536 43.972 47.0728 43.9955 46.9905 44.0195C46.27 44.229 45.4295 44.4733 44.7069 44.5396C44.7434 44.5764 44.7801 44.6132 44.7801 44.6132C45.1329 45.6251 46.633 46.495 47.8624 47.208C48.291 47.4565 48.6866 47.686 48.9893 47.8957C50.4169 48.9284 51.7345 50.1824 52.796 51.6207C52.9785 51.8046 53.161 51.9793 53.3435 52.154C53.5271 52.3297 53.7107 52.5054 53.8941 52.6903C54.018 52.8689 54.0992 53.0734 54.1789 53.2745C54.2639 53.4888 54.3474 53.6993 54.4796 53.8706V53.9812C54.1594 53.866 53.9393 53.6355 53.7209 53.4069C53.5899 53.2696 53.4594 53.133 53.3083 53.0224C52.9636 52.7855 52.6189 52.5284 52.2743 52.2712C51.8138 51.9276 51.3534 51.584 50.8927 51.2889C50.1844 50.8381 49.4192 50.483 48.6502 50.1262C47.909 49.7822 47.1643 49.4367 46.4637 49.0022C45.6586 48.4857 44.8899 47.8957 44.1213 47.3057C43.4258 46.7893 42.6575 45.7932 42.218 45.0558C42.1072 44.8805 42.0375 44.6914 41.9704 44.5093C41.8822 44.2701 41.7986 44.0431 41.6322 43.8755C41.687 43.3516 42.1921 43.2193 42.673 43.0934C42.8352 43.051 42.9946 43.0093 43.133 42.9535Z" fill="#FE3140"/>
<path d="M11.399 10.0549C11.8382 9.94426 12.2773 9.87021 12.8995 9.87021C13.0156 9.9872 13.1603 10.0867 13.3065 10.1873C13.5293 10.3404 13.7553 10.4959 13.8878 10.7187C13.9692 10.8334 14.0215 10.9481 14.0739 11.0629C14.1395 11.2063 14.205 11.3498 14.3271 11.4933C14.3271 12.3784 14.0711 12.9684 13.5583 13.3374C13.5583 13.3374 13.5218 13.3742 13.4853 13.4112C13.339 13.1166 13.202 12.8219 13.0649 12.5272C12.9275 12.2317 12.79 11.9362 12.6433 11.6407C12.5008 11.4397 12.3361 11.2554 12.1708 11.0705C11.9117 10.7805 11.6511 10.4889 11.4722 10.1287H11.399V10.0549Z" fill="#FE3140"/>
</svg>
