<svg width="63" height="63" viewBox="0 0 63 63" fill="none" xmlns="http://www.w3.org/2000/svg">
<path fill-rule="evenodd" clip-rule="evenodd" d="M36.1823 4.43286C35.8086 4.43808 35.4382 4.50376 35.0855 4.62733C38.2261 6.6926 34.5215 9.68354 36.2523 12.2116C36.133 11.3613 36.2683 10.4947 36.641 9.72115C37.0138 8.94762 37.6073 8.30182 38.3467 7.86525C38.9009 7.40436 39.2568 7.23906 39.1382 6.47674C38.9457 5.22824 37.281 4.43286 36.1823 4.43286ZM40.6551 5.23797C40.2214 7.42186 39.6827 7.50159 38.0822 8.90761C37.458 9.39974 37.0175 10.0876 36.8316 10.8605C36.6457 11.6333 36.7252 12.4463 37.0574 13.1684C30.4454 10.6014 21.9704 9.04957 15.7571 13.4913C13.5227 15.0879 12.1594 17.3806 9.4038 18.316C7.62245 18.9267 5.87223 18.7458 4.75597 20.5116C4.34773 21.0215 4.13446 21.6601 4.15442 22.313C4.17438 22.9659 4.42625 23.5903 4.86488 24.0743C5.19742 24.4146 5.83722 24.6324 6.1017 24.9786C6.25533 25.173 6.25144 25.3675 6.3973 25.6262C6.65506 26.2289 7.02757 26.7758 7.4941 27.2364C7.77997 27.4717 8.76205 27.7012 8.92929 27.952C9.13932 28.2651 8.5948 29.5078 9.05181 29.7022C9.35907 29.8442 10.2595 28.2554 10.347 28.1154C10.1681 29.3658 9.93275 31.5847 11.3388 29.7373C12.0058 28.8602 12.0466 28.5704 13.1687 28.376C13.8868 28.2512 14.6126 28.1758 15.341 28.1504C19.502 28.0048 23.5604 29.4609 26.6799 32.2185C29.7994 34.9762 31.7422 38.8253 32.1081 42.9729C31.8981 42.0005 30.6282 40.4448 29.4458 40.8142C28.9422 40.9698 28.7555 41.8391 28.4249 42.3428C28.0069 42.9814 27.4918 43.5509 26.8983 44.0308C26.9988 43.088 26.9515 42.1353 26.7583 41.2071C26.4043 42.6617 25.6945 45.0751 23.9073 44.6842C23.312 44.5933 22.7542 44.3369 22.2975 43.9442C21.8409 43.5515 21.5038 43.0384 21.3248 42.4633C21.0934 40.9854 22.655 39.2526 20.1444 39.1301C15.1076 38.8832 16.2725 46.2905 19.2459 48.2216C18.5625 48.2972 17.8959 48.4831 17.272 48.7719C19.1608 49.8689 21.2891 50.4876 23.4716 50.5744C25.6541 50.6611 27.8247 50.2133 29.7947 49.2697C31.7646 48.3262 33.4741 46.9155 34.7744 45.1606C36.0748 43.4056 36.9266 41.3594 37.2557 39.2001C37.6885 41.1776 37.6786 43.2264 37.2266 45.1995C36.9849 46.2481 36.6234 47.2654 36.1492 48.2313C35.5064 49.536 34.6521 50.7254 33.6211 51.7512C33.0105 52.356 31.8903 52.9647 31.5053 53.5812C33.8622 53.2687 36.1653 52.6353 38.3506 51.6987C36.0884 54.7972 33.0758 57.2699 29.5956 58.8844C33.327 58.6204 36.9341 57.4317 40.0914 55.4256C43.2488 53.4195 45.8571 50.659 47.6813 47.3932C47.0999 50.6594 45.8087 53.7583 43.8988 56.471C46.4676 54.7513 48.6531 52.519 50.3181 49.9143C51.983 47.3097 53.0914 44.3889 53.5737 41.3354C54.0526 43.5706 54.1896 45.8655 53.9801 48.1419C56.0903 45.2097 57.5158 41.8416 58.1516 38.2854C58.7874 34.7293 58.6172 31.0758 57.6537 27.5942C56.9167 24.8876 55.8115 22.2951 54.3691 19.8893C53.8121 18.9519 53.2024 18.0468 52.543 17.1784C52.2843 16.842 50.9017 15.611 50.9017 15.2337C50.89 15.2713 50.8803 15.2713 50.8725 15.2337C50.8725 21.5501 44.0661 25.6048 38.3662 23.9129C40.5335 23.7448 42.582 22.8553 44.1845 21.3864C45.787 19.9174 46.8511 17.9539 47.2067 15.8093C47.5217 13.5594 47.0388 11.2703 45.8421 9.3392C44.6453 7.40814 42.8101 5.95711 40.6551 5.23797Z" fill="#FE3140"/>
</svg>
