<svg width="51" height="56" viewBox="0 0 51 56" fill="none" xmlns="http://www.w3.org/2000/svg">
<path fill-rule="evenodd" clip-rule="evenodd" d="M25.2233 55.8398C24.4512 55.8398 23.7306 55.6378 23.0615 55.2842L16.2158 51.2935C15.1863 50.7378 15.7011 50.5357 16.0099 50.4347C17.3996 49.9801 17.657 49.879 19.0982 49.0708C19.2526 48.9697 19.4585 49.0203 19.6129 49.1213L24.863 52.2027C25.0689 52.3038 25.3262 52.3038 25.4806 52.2027L46.0178 40.5337C46.2236 40.4326 46.3266 40.2306 46.3266 39.978V16.6904C46.3266 16.4378 46.2236 16.2357 46.0178 16.1347L25.4806 4.51613C25.2748 4.4151 25.0174 4.4151 24.863 4.51613L4.32585 16.1347C4.11997 16.2357 4.01702 16.4883 4.01702 16.6904V39.978C4.01702 40.1801 4.11997 40.4326 4.32585 40.5337L9.93625 43.7161C12.9731 45.2316 14.8775 43.4636 14.8775 41.6955V18.711C14.8775 18.4079 15.1349 18.1048 15.4952 18.1048H18.1202C18.429 18.1048 18.7379 18.3574 18.7379 18.711V41.6955C18.7379 45.6862 16.5246 48.0099 12.6642 48.0099C11.4804 48.0099 10.5539 48.0099 7.92886 46.7471L2.52435 43.7161C1.18609 42.9584 0.362549 41.544 0.362549 40.0285V16.7409C0.362549 15.2254 1.18609 13.811 2.52435 13.0532L23.0615 1.38417C24.3483 0.676956 26.0983 0.676956 27.3851 1.38417L47.9222 13.0532C49.2605 13.811 50.084 15.2254 50.084 16.7409V40.0285C50.084 41.544 49.2605 42.9584 47.9222 43.7161L27.3851 55.3852C26.716 55.6883 25.9439 55.8398 25.2233 55.8398ZM31.5543 39.8264C22.5468 39.8264 20.6938 35.7852 20.6938 32.3502C20.6938 32.0471 20.9511 31.744 21.3114 31.744H23.988C24.2968 31.744 24.5542 31.946 24.5542 32.2491C24.9659 34.9264 26.1498 36.2398 31.6057 36.2398C35.9294 36.2398 37.7823 35.28 37.7823 33.0069C37.7823 31.6935 37.2676 30.7337 30.5248 30.077C24.9145 29.5213 21.4144 28.3089 21.4144 23.9141C21.4144 19.8223 24.9145 17.3976 30.7822 17.3976C37.3706 17.3976 40.6133 19.6203 41.025 24.4697C41.025 24.6213 40.9736 24.7728 40.8706 24.9244C40.7677 25.0254 40.6133 25.1264 40.4588 25.1264H37.7823C37.525 25.1264 37.2676 24.9244 37.2161 24.6718C36.5985 21.8935 35.0029 20.9842 30.7822 20.9842C26.0468 20.9842 25.4806 22.6007 25.4806 23.813C25.4806 25.278 26.1498 25.7326 32.5322 26.5409C38.8632 27.3491 41.8486 28.511 41.8486 32.8553C41.7971 37.3007 38.0912 39.8264 31.5543 39.8264Z" fill="#FE3140"/>
</svg>
