<svg width="62" height="62" viewBox="0 0 62 62" fill="none" xmlns="http://www.w3.org/2000/svg">
<path d="M6.40904 7.02977H55.2597V54.5481H6.40904V7.02977ZM4.18787 56.7692H57.4808V4.80859H4.18787V56.7692ZM40.1168 26.1258C38.362 26.1258 37.7624 27.0146 37.7624 27.7474C37.7624 28.5468 38.1621 29.1026 40.5165 30.3226C44.0034 32.0108 45.0845 33.6306 45.0845 36.0078C45.0845 39.5613 42.3761 41.4703 38.7122 41.4703C37.1398 41.5286 35.5769 41.2019 34.1594 40.5187C34.0034 40.4521 33.9824 40.3417 33.9824 40.1628V36.8948C33.9824 36.6721 34.0928 36.6055 34.2489 36.7178C35.5801 37.5737 37.1296 38.0284 38.7122 38.0272C40.467 38.0272 41.1998 37.2945 41.1998 36.2952C41.1998 35.4958 40.6897 34.7859 38.4457 33.6306C35.2919 32.1212 33.9824 30.5853 33.9824 28.0348C33.9824 25.1703 36.2245 22.795 40.1111 22.795C41.464 22.7369 42.8149 22.9484 44.0853 23.4174C44.1584 23.4648 44.2176 23.531 44.2567 23.6089C44.2959 23.6868 44.3136 23.7738 44.3079 23.8608V26.9061C44.3079 27.0831 44.1976 27.1954 43.9749 27.1288C42.8008 26.453 41.4656 26.1077 40.1111 26.1296L40.1168 26.1258ZM21.0189 28.7676C21.529 28.8114 21.9287 28.8114 22.8176 28.8114C25.4156 28.8114 27.8576 27.9016 27.8576 24.3709C27.8576 21.5502 26.1027 20.1303 23.1506 20.1303C22.2618 20.1303 21.4186 20.1741 21.0189 20.1969V28.7676ZM17.0657 16.967C17.0657 16.8109 17.376 16.7005 17.5549 16.7005C18.9767 16.6339 21.0855 16.5901 23.2839 16.5901C29.4354 16.5901 31.8336 19.9647 31.8336 24.2738C31.8336 29.9134 27.7472 32.3344 22.73 32.3344C21.8868 32.3344 21.5975 32.2906 20.998 32.2906V40.8175C20.998 40.9945 20.9314 41.084 20.7315 41.084H17.3341C17.1571 41.084 17.0676 41.0174 17.0676 40.8175V16.9765L17.0657 16.967Z" fill="#FE3140"/>
</svg>
