<svg width="62" height="62" viewBox="0 0 62 62" fill="none" xmlns="http://www.w3.org/2000/svg">
<path d="M26.7631 19.2476C26.1448 19.1616 25.5849 19.2412 25.3016 19.4557C25.1424 19.5764 25.093 19.7162 25.0796 19.8124C25.0441 20.0673 25.2227 20.3492 25.3325 20.4946C25.643 20.9062 26.0966 21.189 26.5455 21.2513C26.6106 21.2605 26.6754 21.2647 26.7398 21.2647C27.4884 21.2647 28.1692 20.6817 28.2292 20.2514C28.3042 19.7125 27.5219 19.353 26.7631 19.2476ZM47.2461 19.2647C47.187 18.8423 46.4354 18.7218 45.722 18.821C45.0096 18.9202 44.3189 19.2418 44.3765 19.6652C44.4227 19.9944 45.0172 20.5564 45.7209 20.5564C45.7804 20.5564 45.8404 20.5525 45.9008 20.544C46.3705 20.4789 46.7152 20.1806 46.879 20.0087C47.1282 19.7466 47.2726 19.4546 47.2461 19.2647Z" fill="#FE3140"/>
<path d="M58.9986 37.3582C58.737 36.5671 57.8949 36.3126 56.4959 36.6015C52.3421 37.4588 50.8545 36.8649 50.3661 36.5052C53.5948 31.5866 56.2509 25.6409 57.6838 20.0936C58.3626 17.4658 58.7375 15.0254 58.7682 13.0363C58.8021 10.8531 58.4302 9.24878 57.6633 8.26875C54.5714 4.31791 50.0334 2.19865 44.5403 2.14052C40.7639 2.09807 37.5733 3.06449 36.9547 3.33626C35.6522 3.01235 34.2322 2.81348 32.6862 2.78811C29.8513 2.7422 27.4008 3.42093 25.3719 4.80447C24.4906 4.47641 22.2131 3.69455 19.4278 3.24583C14.6125 2.47066 10.786 3.05803 8.05542 4.9925C4.79716 7.30094 3.29296 11.4273 3.58434 17.2568C3.68239 19.218 4.79993 25.2514 6.56344 31.0295C8.8848 38.6344 11.4083 42.9396 14.0632 43.8253C14.374 43.9289 14.7323 44.0013 15.1275 44.0013C16.096 44.0013 17.2834 43.5648 18.5188 42.0796C20.0257 40.2719 21.5845 38.5081 23.1932 36.7904C24.2369 37.3506 25.3835 37.6634 26.5561 37.6948C26.5585 37.7254 26.5615 37.7561 26.5642 37.7866C26.3624 38.0273 26.1647 38.2715 25.9713 38.5191C25.1588 39.5506 24.9897 39.7653 22.3741 40.3038C21.6301 40.4575 19.6541 40.8647 19.6251 42.2498C19.5937 43.7632 21.961 44.3988 22.2306 44.4662C23.1705 44.7015 24.0761 44.8176 24.9396 44.8176C27.0397 44.8176 28.8879 44.1273 30.3649 42.7917C30.3194 48.187 30.5444 53.5034 31.1922 55.1232C31.7228 56.4493 33.0189 59.69 37.113 59.6898C37.7138 59.6898 38.375 59.6199 39.1024 59.4639C43.3753 58.548 45.2308 56.6594 45.9486 52.4959C46.3327 50.2708 46.9918 44.9574 47.3019 42.1072C47.9562 42.3114 48.7985 42.4049 49.7091 42.4046C51.6082 42.4046 53.7997 42.0011 55.174 41.3632C56.7179 40.6462 59.5039 38.8868 58.9986 37.3582ZM48.8231 18.0989C48.8091 18.9403 48.6933 19.7041 48.5705 20.5014C48.4383 21.359 48.3018 22.2456 48.2674 23.3218C48.2335 24.3692 48.3643 25.4581 48.4907 26.5113C48.7463 28.6384 49.0086 30.8283 47.9933 32.9891C47.8246 32.6902 47.6744 32.3813 47.5434 32.0642C47.4172 31.7583 47.1431 31.2668 46.7636 30.5867C45.2873 27.9392 41.8302 21.7392 43.6 19.2093C44.1271 18.4562 45.465 17.682 48.8231 18.0989ZM44.7526 3.84428C49.6744 3.95294 53.5678 5.7942 56.3243 9.31661C58.4385 12.0184 56.1104 24.312 49.3708 34.9178C49.3031 34.8316 49.2349 34.7457 49.1664 34.6601L49.0811 34.5535C50.8227 31.6773 50.4821 28.8315 50.179 26.3085C50.0544 25.2731 49.9368 24.2952 49.9668 23.3765C49.9977 22.4029 50.1264 21.5678 50.251 20.7603C50.4039 19.7653 50.5597 18.7356 50.5168 17.5219C50.5488 17.3945 50.5617 17.2441 50.5449 17.0655C50.4353 15.9016 49.1064 12.4182 46.398 9.26539C44.9164 7.54087 42.7558 5.61102 39.8058 4.30938C41.0747 4.04637 42.8098 3.80113 44.7526 3.84428ZM17.2114 40.9925C15.8503 42.6291 14.9104 42.3153 14.6012 42.2124C12.5872 41.5406 10.2501 37.2836 8.18969 30.5332C6.40679 24.6922 5.36493 18.8187 5.28234 17.1717C5.0221 11.9628 6.28475 8.33265 9.03545 6.38181C13.5121 3.2073 20.872 5.10739 23.8294 6.07105C23.787 6.11303 23.7427 6.15225 23.7007 6.19493C18.8476 11.096 18.9627 19.4697 18.9747 19.9817C18.9742 20.1791 18.9909 20.4588 19.0135 20.8433C19.097 22.2518 19.2525 24.8731 18.8372 27.8416C18.4515 30.6001 19.3018 33.3001 21.1699 35.2493C21.3616 35.449 21.5631 35.639 21.7736 35.8187C20.9422 36.7092 19.135 38.6785 17.2114 40.9925ZM22.3974 34.0729C20.8919 32.5018 20.2081 30.3166 20.5211 28.0769C20.9595 24.9411 20.7977 22.21 20.7108 20.7428C20.6985 20.5374 20.6877 20.3575 20.6815 20.2156C21.3904 19.5869 24.6759 17.8266 27.0189 18.3635C28.088 18.6083 28.7395 19.3364 29.0104 20.5886C30.4122 27.0722 29.1959 29.7744 28.2186 31.946C28.0172 32.3934 27.8269 32.8163 27.6645 33.2537L27.5385 33.5919C27.2197 34.4469 26.923 35.2419 26.7391 35.9968C25.1385 35.9922 23.5814 35.3083 22.3974 34.0727V34.0729ZM22.6432 42.8167C22.1757 42.6999 21.7554 42.4971 21.5088 42.3289C21.7148 42.2321 22.0814 42.1001 22.7172 41.969C25.7941 41.3358 26.2694 40.8887 27.3071 39.5711C27.5449 39.2689 27.8146 38.9265 28.1882 38.5094L28.1886 38.5089C28.7448 37.886 28.9993 37.9917 29.4607 38.1832C29.8347 38.3377 30.199 38.8065 30.3466 39.3224C30.4165 39.566 30.495 40.0284 30.2382 40.3883C28.0705 43.4234 24.9117 43.3844 22.6432 42.8167ZM38.7462 57.8014C34.982 58.608 33.6492 56.6874 32.7709 54.4917C32.204 53.0743 31.9254 46.6824 32.1231 39.6235C32.1256 39.5296 32.1122 39.4389 32.0864 39.3535C32.0633 39.185 32.0281 39.0183 31.9812 38.8548C31.6873 37.8277 30.9709 36.9685 30.1115 36.6123C29.7701 36.4709 29.1435 36.2113 28.3905 36.404C28.5511 35.7423 28.8295 34.995 29.1315 34.186L29.2582 33.8457C29.4007 33.462 29.5798 33.0645 29.769 32.6437C30.7917 30.3717 32.1923 27.2597 30.6722 20.2294C30.1028 17.5962 28.2013 16.3102 25.3189 16.609C23.5909 16.7878 22.0099 17.485 21.2213 17.8848C21.0517 17.9706 20.8967 18.0537 20.7518 18.1344C20.9719 15.4813 21.8034 10.523 24.9138 7.38584C26.8722 5.411 29.4803 4.43557 32.6581 4.48817C38.9194 4.59061 42.9346 7.80387 45.2006 10.4817C47.1533 12.789 48.2106 15.1133 48.6326 16.367C45.4592 16.0442 43.301 16.6706 42.207 18.2348C39.8268 21.6372 43.5091 28.2409 45.2788 31.4147C45.6034 31.9963 45.8835 32.4991 45.9716 32.7127C46.5479 34.1094 47.294 35.0419 47.8387 35.7225C48.0058 35.931 48.1677 36.1334 48.2909 36.3101C47.3298 36.5871 45.6034 37.2274 45.7608 40.4275C45.6339 42.0332 44.7316 49.5509 44.2732 52.2071C43.668 55.7161 42.3768 57.023 38.7462 57.8017V57.8014ZM54.4581 39.8212C53.4753 40.2773 51.8306 40.6194 50.2683 40.693C48.5426 40.7738 47.6641 40.4997 47.4574 40.331C47.3605 38.3368 48.1026 38.1285 48.8882 37.9079C49.0116 37.8733 49.1321 37.8394 49.2483 37.7988C49.3205 37.8576 49.3997 37.916 49.4864 37.9732C50.8734 38.8887 53.3473 38.9874 56.8399 38.2665L56.8782 38.2588C56.4071 38.6993 55.601 39.2903 54.4581 39.8212Z" fill="#FE3140"/>
</svg>
