<svg width="47" height="57" viewBox="0 0 47 57" fill="none" xmlns="http://www.w3.org/2000/svg">
<path fill-rule="evenodd" clip-rule="evenodd" d="M41.9775 45.0599L16.9193 52.5305C16.7448 52.5834 16.5594 52.5902 16.3815 52.5501C16.2035 52.51 16.0389 52.4244 15.9039 52.3018C15.7689 52.1791 15.668 52.0235 15.6111 51.8502C15.5541 51.6768 15.5431 51.4917 15.5791 51.3129L24.5326 8.09045C24.5705 7.9139 24.6627 7.75364 24.7964 7.6322C24.93 7.51077 25.0984 7.43425 25.2777 7.41341C25.4571 7.39257 25.6385 7.42845 25.7964 7.51601C25.9543 7.60357 26.0808 7.73841 26.1582 7.90158L42.733 43.3881C42.8074 43.5459 42.8465 43.7179 42.8479 43.8923C42.8493 44.0667 42.8128 44.2394 42.741 44.3983C42.6692 44.5572 42.5637 44.6987 42.4319 44.8129C42.3001 44.9271 42.1451 45.0114 41.9775 45.0599ZM46.2755 43.2957L27.0885 2.20717C26.8527 1.70038 26.4832 1.26743 26.0198 0.954831C25.5564 0.642235 25.0165 0.461812 24.4583 0.432947C23.9 0.39455 23.342 0.51099 22.8456 0.769443C22.3493 1.0279 21.9339 1.41833 21.6453 1.89774L0.838784 35.8934C0.521389 36.408 0.356327 37.002 0.362728 37.6065C0.369129 38.2111 0.546733 38.8015 0.874952 39.3092L11.0501 55.2009C11.4335 55.7948 11.999 56.2485 12.6619 56.4941C13.3248 56.7397 14.0494 56.7639 14.7272 56.5632L44.2641 47.7564C44.7102 47.6264 45.1229 47.4013 45.4736 47.0966C45.8244 46.7919 46.1049 46.4147 46.2959 45.9911C46.4869 45.5675 46.5837 45.1076 46.5799 44.643C46.576 44.1783 46.4715 43.7201 46.2735 43.2997L46.2755 43.2957Z" fill="#FE3140"/>
</svg>
