<svg width="56" height="51" viewBox="0 0 56 51" fill="none" xmlns="http://www.w3.org/2000/svg">
<path d="M46.0975 16.6176C45.5271 16.4181 44.936 16.2293 44.3274 16.0507C44.4274 15.6358 44.5193 15.2263 44.6009 14.8237C45.9408 8.21336 45.0647 2.88802 42.0732 1.13469C39.2047 -0.546516 34.5134 1.20641 29.7755 5.39705C29.3199 5.80002 28.8631 6.22666 28.4064 6.6738C28.1021 6.37796 27.7983 6.09207 27.4953 5.81862C22.5298 1.33772 17.5527 -0.550595 14.5641 1.20781C11.6983 2.89389 10.8496 7.90021 12.0557 14.1649C12.1722 14.77 12.3084 15.3879 12.4623 16.0162C11.7579 16.2194 11.0779 16.4361 10.4272 16.6665C4.60574 18.7293 0.887878 21.9622 0.887878 25.3156C0.887878 28.779 4.879 32.2528 10.9425 34.3592C11.421 34.5254 11.9176 34.6826 12.4292 34.8318C12.2631 35.5113 12.1187 36.1772 11.9974 36.8266C10.8474 42.9826 11.7455 47.8706 14.6036 49.5461C17.5558 51.2763 22.5104 49.4978 27.3349 45.2117C27.7163 44.8729 28.0989 44.5136 28.4823 44.137C28.9792 44.6233 29.4754 45.0836 29.9688 45.5153C34.642 49.6024 39.2574 51.2527 42.1129 49.5726C45.0622 47.8374 46.0206 42.5865 44.7763 36.1979C44.6812 35.7099 44.5706 35.2115 44.4464 34.7042C44.7944 34.5996 45.136 34.4917 45.469 34.3795C51.7726 32.2568 55.874 28.8252 55.874 25.3156C55.874 21.9501 52.0362 18.6954 46.0975 16.6176ZM44.7303 32.1134C44.4296 32.2145 44.1211 32.3123 43.8067 32.4071C43.1108 30.168 42.1716 27.7871 41.0223 25.3272C42.1191 22.9259 43.022 20.5755 43.6984 18.3509C44.2609 18.5164 44.8068 18.6908 45.3329 18.875C50.4212 20.6553 53.525 23.2874 53.525 25.3156C53.525 27.476 50.173 30.2805 44.7303 32.1134ZM42.4719 36.6615C43.0222 39.4865 43.1008 42.0406 42.7363 44.0372C42.4088 45.8313 41.7502 47.0275 40.9359 47.5065C39.203 48.526 35.4973 47.2009 31.5008 43.7056C31.0426 43.3049 30.5811 42.877 30.1182 42.4242C31.6675 40.702 33.216 38.6999 34.7273 36.4764C37.3855 36.2367 39.8968 35.8447 42.1743 35.3097C42.2864 35.7695 42.3861 36.2205 42.4719 36.6615ZM19.6339 47.3304C17.9408 47.9381 16.5924 47.9555 15.7773 47.4778C14.0429 46.4611 13.3219 42.5364 14.3054 37.2719C14.418 36.669 14.5521 36.0496 14.7067 35.4166C16.9592 35.9228 19.4521 36.2871 22.1167 36.5066C23.6381 38.6824 25.2313 40.6823 26.8369 42.4335C26.4861 42.7777 26.1367 43.1053 25.7892 43.4141C23.6558 45.3094 21.518 46.6541 19.6339 47.3304ZM11.7022 32.1001C9.02105 31.1688 6.80684 29.9583 5.2891 28.6373C3.92532 27.4503 3.23677 26.2719 3.23677 25.3156C3.23677 23.2807 6.22184 20.6851 11.2004 18.9209C11.8045 18.7069 12.4369 18.5051 13.0931 18.3156C13.7812 20.5904 14.6838 22.9687 15.773 25.3737C14.6697 27.8144 13.7543 30.2306 13.0595 32.532C12.5916 32.3954 12.1384 32.2515 11.7022 32.1001ZM14.361 13.7064C13.3276 8.33899 14.0139 4.29 15.7409 3.27398C17.5805 2.1916 21.6482 3.73484 25.9355 7.60388C26.2096 7.85117 26.4847 8.11 26.7606 8.37779C25.163 10.1213 23.5844 12.1062 22.0764 14.2691C19.4904 14.5127 17.015 14.9041 14.739 15.4281C14.5959 14.8431 14.4691 14.2683 14.361 13.7064ZM38.0795 19.6588C37.5354 18.7037 36.9768 17.7711 36.4074 16.864C38.1618 17.0894 39.8427 17.3886 41.4212 17.7548C40.9473 19.2984 40.3566 20.9124 39.6613 22.5669C39.1626 21.6045 38.635 20.6342 38.0795 19.6588ZM28.4072 10.084C29.4906 11.277 30.5757 12.6089 31.6429 14.0541C30.5674 14.0024 29.4787 13.9756 28.3809 13.9756C27.2935 13.9756 26.2128 14.0018 25.144 14.0526C26.2123 12.6208 27.3067 11.2907 28.4072 10.084ZM18.6728 19.6753C18.1294 20.6332 17.6116 21.5983 17.1207 22.5652C16.4366 20.9164 15.8514 19.295 15.3734 17.7295C16.9422 17.3727 18.6152 17.081 20.3584 16.8598C19.781 17.7753 19.2178 18.7147 18.6728 19.6751V19.6753ZM20.4087 33.9417C18.6076 33.7375 16.9094 33.4607 15.341 33.1138C15.8267 31.5203 16.4248 29.8644 17.1233 28.1801C17.6155 29.1462 18.1353 30.1117 18.6821 31.0717H18.6822C19.2392 32.0496 19.8163 33.0075 20.4087 33.9417ZM28.4721 40.7156C27.3588 39.4947 26.2483 38.1443 25.1638 36.6916C26.2166 36.7336 27.29 36.7551 28.3809 36.7551C29.5017 36.7551 30.6096 36.7294 31.7001 36.6801C30.6294 38.1589 29.5483 39.5114 28.4721 40.7156ZM39.6838 28.0942C40.4187 29.7967 41.0382 31.444 41.5302 33.0103C39.9359 33.38 38.2146 33.6777 36.401 33.8989C36.9718 32.9796 37.5352 32.031 38.0889 31.0553C38.649 30.0681 39.1809 29.0794 39.6838 28.0942ZM36.0542 29.8626C35.1946 31.3772 34.3122 32.8232 33.4164 34.1881C31.7847 34.3067 30.099 34.3677 28.3809 34.3677C26.6698 34.3677 25.0053 34.3137 23.4025 34.208C22.4706 32.8252 21.569 31.375 20.7149 29.8756H20.7151C19.8633 28.3803 19.0793 26.8724 18.3689 25.3729C19.0791 23.87 19.861 22.3603 20.708 20.8677L20.7078 20.868C21.5569 19.3714 22.4506 17.9283 23.374 16.5541C25.0092 16.4285 26.6861 16.363 28.3808 16.363H28.3809C30.0833 16.363 31.7623 16.429 33.3971 16.5557C34.3063 17.9198 35.194 19.3583 36.0465 20.8551C36.9086 22.3687 37.7006 23.8683 38.4169 25.339C37.7028 26.835 36.9125 28.3497 36.0542 29.8626ZM40.8999 3.20295C42.7412 4.28215 43.4572 8.63453 42.3003 14.3418C42.2265 14.706 42.1434 15.077 42.0532 15.4529C39.7719 14.9179 37.2947 14.5198 34.7012 14.2725C33.1903 12.0858 31.6246 10.0978 30.053 8.37669C30.4755 7.96358 30.8975 7.56966 31.3176 7.19793C35.3771 3.60741 39.1712 2.18981 40.8999 3.20295ZM28.3809 20.3253C31.0926 20.3253 33.291 22.5595 33.291 25.3156C33.291 28.0716 31.0926 30.3059 28.3809 30.3059C25.6692 30.3059 23.4709 28.0716 23.4709 25.3156C23.4709 22.5595 25.6692 20.3253 28.3809 20.3253Z" fill="#FE3140"/>
</svg>
