<svg width="36" height="36" viewBox="0 0 36 36" fill="none" xmlns="http://www.w3.org/2000/svg">
<path d="M25.5 18C25.5 22.1421 22.1421 25.5 18 25.5C13.8579 25.5 10.5 22.1421 10.5 18C10.5 13.8579 13.8579 10.5 18 10.5C22.1421 10.5 25.5 13.8579 25.5 18Z"/>
<path fill-rule="evenodd" clip-rule="evenodd" d="M18 1.875C18.6213 1.875 19.125 2.37868 19.125 3V6C19.125 6.62132 18.6213 7.125 18 7.125C17.3787 7.125 16.875 6.62132 16.875 6V3C16.875 2.37868 17.3787 1.875 18 1.875ZM5.50297 5.57413C5.92222 5.11558 6.63382 5.08372 7.09237 5.50297L10.4254 8.55036C10.8839 8.96961 10.9158 9.68119 10.4966 10.1397C10.0773 10.5983 9.3657 10.6302 8.90715 10.2109L5.57413 7.16354C5.11558 6.74429 5.08372 6.03268 5.50297 5.57413ZM30.4971 5.57413C30.9163 6.03268 30.8844 6.74429 30.4258 7.16354L27.0928 10.2109C26.6343 10.6302 25.9227 10.5983 25.5035 10.1397C25.0842 9.68119 25.116 8.96961 25.5746 8.55036L28.9077 5.50297C29.3662 5.08372 30.0777 5.11558 30.4971 5.57413ZM1.875 18C1.875 17.3787 2.37868 16.875 3 16.875H6C6.62132 16.875 7.125 17.3787 7.125 18C7.125 18.6213 6.62132 19.125 6 19.125H3C2.37868 19.125 1.875 18.6213 1.875 18ZM28.875 18C28.875 17.3787 29.3787 16.875 30 16.875H33C33.6213 16.875 34.125 17.3787 34.125 18C34.125 18.6213 33.6213 19.125 33 19.125H30C29.3787 19.125 28.875 18.6213 28.875 18ZM25.5382 25.5378C25.9776 25.0984 26.69 25.0984 27.1293 25.5378L30.4623 28.8713C30.9017 29.3106 30.9015 30.023 30.4622 30.4623C30.0228 30.9017 29.3104 30.9015 28.8713 30.4622L25.5382 27.1287C25.0989 26.6894 25.0989 25.9771 25.5382 25.5378ZM10.462 25.5379C10.9013 25.9773 10.9013 26.6897 10.462 27.129L7.12866 30.4623C6.68932 30.9017 5.97702 30.9017 5.53767 30.4623C5.09834 30.023 5.09834 29.3106 5.53767 28.8714L8.87102 25.5379C9.31035 25.0986 10.0227 25.0986 10.462 25.5379ZM18 28.875C18.6213 28.875 19.125 29.3787 19.125 30V33C19.125 33.6213 18.6213 34.125 18 34.125C17.3787 34.125 16.875 33.6213 16.875 33V30C16.875 29.3787 17.3787 28.875 18 28.875Z"/>
</svg>
