<svg width="63" height="38" viewBox="0 0 63 38" fill="none" xmlns="http://www.w3.org/2000/svg">
<path d="M31.7219 0.12207C23.4545 0.12207 18.2874 4.28177 16.2205 12.6012C19.3208 8.44148 22.9378 6.88159 27.0715 7.92152C29.43 8.51485 31.1157 10.2366 32.9817 12.1426C36.0213 15.2473 39.5393 18.8407 47.2233 18.8407C55.4907 18.8407 60.6579 14.681 62.7247 6.36163C59.6244 10.5213 56.0074 12.0812 51.8737 11.0413C49.5152 10.448 47.8295 8.72619 45.9636 6.82023C42.9239 3.71548 39.4059 0.12207 31.7219 0.12207ZM16.2205 18.8407C7.9531 18.8407 2.78597 23.0004 0.719116 31.3199C3.8194 27.1601 7.43639 25.6003 11.5701 26.6402C13.9286 27.2335 15.6144 28.9553 17.4803 30.8612C20.5199 33.966 24.0379 37.5594 31.7219 37.5594C39.9893 37.5594 45.1565 33.3997 47.2233 25.0803C44.123 29.24 40.506 30.7999 36.3723 29.76C34.0138 29.1666 32.3281 27.4449 30.4622 25.5389C27.4225 22.4341 23.9045 18.8407 16.2205 18.8407Z" fill="url(#paint0_linear_165_387)"/>
<defs>
<linearGradient id="paint0_linear_165_387" x1="-1.00326" y1="12.102" x2="52.7157" y2="42.8816" gradientUnits="userSpaceOnUse">
<stop stop-color="#66171D"/>
<stop offset="1" stop-color="#FE3140"/>
</linearGradient>
</defs>
</svg>
