<svg width="61" height="60" viewBox="0 0 61 60" fill="none" xmlns="http://www.w3.org/2000/svg">
<path d="M45.2664 15.4498C46.8515 15.8186 48.2917 16.6485 49.4055 17.835C50.0191 18.4771 50.5518 19.1918 50.9919 19.9632C51.0124 20.047 48.1357 21.9797 46.3911 23.0577C46.3278 23.1006 46.0764 22.8268 45.7915 22.406C45.4728 21.8582 45.0204 21.4001 44.4767 21.0745C43.9329 20.7489 43.3155 20.5664 42.6821 20.5441C40.6768 20.4063 39.3846 21.4565 39.3939 23.2123C39.3766 23.6436 39.4749 24.0718 39.6788 24.4523C40.12 25.3647 40.9393 25.9121 43.5125 27.0274C48.2493 29.0662 50.2825 30.4105 51.5375 32.3209C52.2468 33.5279 52.6837 34.8755 52.8175 36.2691C52.9513 37.6627 52.7788 39.0687 52.312 40.3887C51.6706 41.8362 50.6533 43.0857 49.3659 44.0074C48.0785 44.929 46.5679 45.4893 44.9909 45.6301C43.3145 45.8224 41.6208 45.8048 39.9487 45.5779C37.3876 45.1571 35.0283 43.9279 33.216 42.07C32.5311 41.2989 31.9514 40.4405 31.4918 39.5173C31.685 39.3736 31.8885 39.2441 32.1006 39.13C32.3948 38.9624 33.5083 38.3219 34.5584 37.7131L36.465 36.5959L36.8635 37.1768C37.5346 38.1366 38.3889 38.9541 39.3771 39.5825C40.3752 40.1299 41.5057 40.3893 42.6426 40.3318C43.7795 40.2743 44.878 39.902 45.8157 39.2566C46.2994 38.7852 46.6018 38.1586 46.6699 37.4866C46.738 36.8146 46.5674 36.14 46.1881 35.5812C45.6742 34.8457 44.6241 34.2275 41.6394 32.9335C39.299 32.1443 37.1673 30.8363 35.4037 29.1072C34.5639 28.1501 33.9436 27.0208 33.5865 25.7985C33.3224 24.4061 33.2834 22.9804 33.471 21.5756C33.8214 19.9592 34.6603 18.4895 35.8739 17.3658C37.0876 16.242 38.6174 15.5186 40.256 15.2934C41.9245 15.094 43.6136 15.1468 45.2664 15.4498ZM29.7323 18.2111L29.7527 20.9184H21.1319V45.3992H15.0527V20.9239H6.4319V18.2651C6.40897 17.3545 6.43383 16.4434 6.50637 15.5355C6.53803 15.4927 11.7794 15.4722 18.1342 15.4833L29.6987 15.515L29.7323 18.2111Z" fill="#FE3140"/>
</svg>
